<svg width="488" height="103" viewBox="0 0 488 103" fill="none" xmlns="http://www.w3.org/2000/svg">
<path d="M61.7531 20.1452H35.7922C33.5921 20.1452 32.0153 20.5198 31.062 21.269C30.1819 21.9433 29.5952 23.2919 29.3019 25.3148L27.8719 36.1036H55.4829L53.6128 50.3762H25.8918L21.6017 81.6186H0.920914L9.28123 20.1452C10.0146 14.9756 12.0313 10.9673 15.3314 8.12023C18.7049 5.19828 22.9584 3.7373 28.0919 3.7373C45.4725 3.7373 57.4629 4.2243 64.0632 5.19828L61.7531 20.1452Z" fill="#2B66FF"/>
<path d="M99.6423 2.95062L91.2821 62.6259C90.9887 64.3491 91.1354 65.5104 91.7221 66.1098C92.3821 66.7091 93.7755 67.0088 95.9022 67.0088H100.522L101.622 80.7195C98.6156 82.2929 93.8121 83.0796 87.2119 83.0796C81.565 83.0796 77.2749 81.6561 74.3414 78.809C71.408 75.962 70.2346 72.0661 70.8213 67.1212L79.7316 2.95062H99.6423Z" fill="#4C94CE"/>
<path d="M130.844 0.590576H138.764C143.018 0.590576 144.924 2.72585 144.484 6.9964L143.714 12.8403C143.201 16.5864 141.037 18.4594 137.224 18.4594H129.084C124.904 18.4594 123.07 16.3242 123.583 12.0536L124.354 6.20971C124.647 2.46362 126.81 0.590576 130.844 0.590576ZM134.034 81.6186H114.123L121.713 25.7643H141.624L134.034 81.6186Z" fill="#76BDA6"/>
<path d="M176.155 25.7643V35.9912C183.415 28.2742 190.859 24.4157 198.486 24.4157C211.173 24.4157 216.196 34.6051 213.556 54.9839C212.823 60.8278 211.686 65.6602 210.146 69.4812C208.679 73.3023 206.773 76.1868 204.426 78.1347C202.079 80.0827 199.622 81.3938 197.056 82.0681C194.562 82.8173 191.519 83.192 187.925 83.192C182.645 83.192 177.438 82.6675 172.305 81.6186C172.305 85.065 172.048 88.5863 171.535 92.1826L169.885 102.409H149.864L160.314 25.7643H176.155ZM174.505 70.0432H181.105C185.578 70.0432 188.475 69.1816 189.795 67.4584C191.189 65.7352 192.325 61.6894 193.205 55.321C194.012 49.1774 194.195 45.1691 193.755 43.2961C193.315 41.3481 192.069 40.3741 190.015 40.3741C186.275 40.3741 182.058 42.6967 177.365 47.3418L174.505 70.0432Z" fill="#BBD697"/>
<path d="M249.677 25.7643L249.897 36.2159C257.89 28.1993 266.031 24.191 274.318 24.191C279.011 24.191 282.678 25.577 285.318 28.3491C287.958 31.1213 288.912 35.0546 288.178 40.1493L282.458 81.6186H262.437L267.277 46.5552C267.571 44.4573 267.461 43.0713 266.947 42.397C266.507 41.6478 265.517 41.3481 263.977 41.4979C260.53 41.5729 256.204 43.7081 250.997 47.9038L246.377 81.6186H226.356L233.946 25.7643H249.677Z" fill="#D9D228"/>
<path d="M334.739 24.191C345.446 24.191 352.926 26.551 357.18 31.2711C361.433 35.9163 362.79 43.6707 361.25 54.5343C359.783 65.0234 356.63 72.4032 351.789 76.6738C347.023 80.8694 339.432 82.9672 329.019 82.9672C318.385 82.9672 310.868 80.6446 306.468 75.9995C302.141 71.3543 300.748 63.6748 302.288 52.961C303.754 42.3221 306.871 34.8673 311.638 30.5968C316.405 26.3263 324.105 24.191 334.739 24.191ZM334.409 38.576C330.742 38.576 328.175 39.6249 326.708 41.7227C325.242 43.7456 324.032 48.0161 323.078 54.5343C322.272 60.3033 322.272 64.1243 323.078 65.9974C323.958 67.7955 326.159 68.6946 329.679 68.6946C333.125 68.6946 335.582 67.6457 337.049 65.5479C338.516 63.45 339.689 59.2544 340.569 52.961C341.449 47.1171 341.486 43.2586 340.679 41.3855C339.872 39.5125 337.782 38.576 334.409 38.576Z" fill="#EDCE54"/>
<path d="M404.216 38.576L400.916 62.6259C400.623 64.424 400.733 65.6228 401.246 66.2222C401.76 66.7466 402.97 67.0088 404.876 67.0088H411.697L412.687 80.6072C408.433 82.2554 402.823 83.0796 395.856 83.0796C390.429 83.0796 386.286 81.6186 383.426 78.6966C380.639 75.7747 379.612 71.8413 380.346 66.8965L384.416 38.576H374.845L376.385 26.3263L386.286 25.7643L388.486 10.705H408.177L406.087 25.7643H420.057L418.297 38.576H404.216Z" fill="#E7AD3E"/>
<path d="M480.083 65.7726L481.403 78.4719C474.876 81.4688 466.516 82.9672 456.322 82.9672C445.028 82.9672 437.328 80.5322 433.221 75.6623C429.114 70.7175 427.611 63.1504 428.711 52.961C429.958 41.7976 433.075 34.2305 438.061 30.2597C443.122 26.2139 450.859 24.191 461.272 24.191C471.613 24.191 478.689 25.8767 482.503 29.2482C486.316 32.5448 487.747 37.5645 486.793 44.3075C486.06 49.3273 483.933 52.8861 480.413 54.9839C476.966 57.0068 471.466 58.3179 463.912 58.9173L449.062 60.0411C449.135 62.8881 449.868 64.7986 451.262 65.7726C452.655 66.6717 455.002 67.1212 458.302 67.1212C465.269 67.1212 472.529 66.6717 480.083 65.7726ZM450.272 49.2523L459.512 48.3533C462.226 48.1285 464.169 47.6415 465.342 46.8923C466.589 46.0682 467.322 44.5323 467.542 42.2846C467.689 40.4865 467.322 39.3252 466.442 38.8007C465.562 38.2014 463.729 37.9391 460.942 38.0141C457.569 38.089 455.149 38.8757 453.682 40.3741C452.289 41.7976 451.152 44.757 450.272 49.2523Z" fill="#DD862F"/>
</svg>
